<?xml version="1.0" encoding="UTF-8"?>
<svg id="_レイヤー_2" data-name="レイヤー 2" xmlns="http://www.w3.org/2000/svg" viewBox="0 0 35.51 30.06">
  <defs>
    <style>
      .cls-1 {
        fill: #81b4ad;
        stroke-width: 0px;
      }
    </style>
  </defs>
  <g id="_ガイド" data-name="ガイド">
    <g>
      <g id="kmHJcl">
        <path class="cls-1" d="M15.83,23.26c-.06,1.84-.38,3.69-1.62,5.25-1.01,1.27-2.72,1.88-4.04,1.34-.48-.2-.91-.58-1.3-.94-.63-.58-1.31-.65-1.86-.01-1.49,1.74-3.58,1.35-5.02,0-1.19-1.12-1.69-2.59-1.87-4.15-.3-2.57-.04-5.1.85-7.54.57-1.57,1.48-2.9,2.92-3.81.92-.58,1.78-.47,2.43.41.48.64.81,1.39,1.22,2.08.09.16.24.29.36.43.14-.14.3-.27.4-.43.51-.78.93-1.63,1.52-2.34.53-.64,1.24-.65,1.97-.23,1.34.77,2.22,1.94,2.84,3.32.93,2.09,1.16,4.31,1.21,6.64Z"/>
      </g>
      <g id="kmHJcl-2" data-name="kmHJcl">
        <path class="cls-1" d="M35.51,10.25c-.06,1.84-.38,3.69-1.62,5.25-1.01,1.27-2.72,1.88-4.04,1.34-.48-.2-.91-.58-1.3-.94-.63-.58-1.31-.65-1.86-.01-1.49,1.74-3.58,1.35-5.02,0-1.19-1.12-1.69-2.59-1.87-4.15-.3-2.57-.04-5.1.85-7.54.57-1.57,1.48-2.9,2.92-3.81.92-.58,1.78-.47,2.43.41.48.64.81,1.39,1.22,2.08.09.16.24.29.36.43.14-.14.3-.27.4-.43.51-.78.93-1.63,1.52-2.34.53-.64,1.24-.65,1.97-.23,1.34.77,2.22,1.94,2.84,3.32.93,2.09,1.16,4.31,1.21,6.64Z"/>
      </g>
    </g>
  </g>
</svg>