<?xml version="1.0" encoding="UTF-8"?>
<svg id="_レイヤー_2" data-name="レイヤー 2" xmlns="http://www.w3.org/2000/svg" viewBox="0 0 10.79 11.61">
  <defs>
    <style>
      .cls-1 {
        fill: #81b4ad;
        stroke-width: 0px;
      }
    </style>
  </defs>
  <g id="_ワイヤー" data-name="ワイヤー">
    <path class="cls-1" d="M10.79,6.98c-.04,1.26-.26,2.51-1.11,3.58-.69.87-1.85,1.28-2.75.91-.33-.14-.62-.39-.89-.64-.43-.39-.89-.44-1.27,0-1.02,1.19-2.44.92-3.42,0-.81-.76-1.15-1.76-1.28-2.83-.2-1.75-.03-3.47.58-5.14C1.04,1.79,1.66.88,2.64.26c.63-.4,1.21-.32,1.66.28.32.44.55.95.83,1.42.06.11.16.19.24.29.09-.1.2-.18.27-.3.35-.53.63-1.11,1.03-1.6.36-.44.85-.44,1.34-.16.91.52,1.52,1.32,1.94,2.26.63,1.42.79,2.94.82,4.52Z"/>
  </g>
</svg>