<?xml version="1.0" encoding="UTF-8"?>
<svg id="_レイヤー_2" data-name="レイヤー 2" xmlns="http://www.w3.org/2000/svg" viewBox="0 0 305.73 70.88">
  <defs>
    <style>
      .cls-1 {
        fill: #000;
        stroke-width: 0px;
      }
    </style>
  </defs>
  <g id="_ワイヤー" data-name="ワイヤー">
    <g>
      <path class="cls-1" d="M305.38,36.32c-.49,0-.49.01-.99.01s-.49.16-.99.16-.49-.22-.99-.22-.49.01-.99.01-.49.11-.99.11-.49-.1-.99-.1-.49.03-.99.03-.49.12-.99.12-.49-.04-.99-.04-.49-.08-.99-.08-.49.13-.99.13-.49-.09-.99-.09-.49-.1-.99-.1-.49.19-.99.19-.49-.09-.99-.09-.49-.1-.99-.1-.49.16-.99.16-.49-.1-.99-.1-.49.07-.99.07-.49-.16-.99-.16-.49.16-.99.16-.49-.15-.99-.15-.49-.01-.99-.01-.49.03-.99.03-.49-.03-.99-.03-.49.1-.99.1-.49-.1-.99-.1-.49.14-.99.14-.49.11-.99.11-.49-.07-.99-.07-.49-.02-.99-.02-.49-.15-.99-.15-.49.03-.99.03-.49.17-.99.17-.49-.14-.99-.14-.49.04-.99.04-.49-.1-.99-.1-.49.07-.99.07-.49-.1-.99-.1-.49.09-.99.09-.49-.03-.99-.03-.49.02-.99.02-.49.1-.99.1-.5-.14-.99-.14-.5-.03-.99-.03c-.38,0-.45-.28-.45-.79s.07-.85.45-.85c.49,0,.49.04.99.04s.49.01.99.01.49-.13.99-.13.49.13.99.13.49-.22.99-.22.49.04.99.04.49.1.99.1.49.03.99.03.49.02.99.02.49.06.99.06.49-.04.99-.04.49-.03.99-.03.49-.12.99-.12.49-.05.99-.05.49.04.99.04.49.03.99.03.49.06.99.06.49-.05.99-.05.49.05.99.05.49-.01.99-.01.49-.07.99-.07.49.13.99.13.49-.22.99-.22.49,0,.99,0,.49,0,.99,0,.49,0,.99,0,.49.2.99.2.49-.04.99-.04.49-.09.99-.09.49-.05.99-.05.49.25.99.25.49-.1.99-.1.49-.07.99-.07.49.03.99.03.49-.1.99-.1.49.19.99.19.49-.1.99-.1.49-.11.99-.11.49-.01.99-.01.49,0,.99,0,.49.19.99.19.49.04.99.04.49-.07.99-.07.5-.05.99-.05.5.1.99.1c.38,0,.35.34.35.85s.03.86-.35.86Z"/>
      <path class="cls-1" d="M285.11,64.37q0-7.72-.01-15.44c0-7.72-.16-7.72-.16-15.45s.22-7.72.22-15.44q0-7.72-.01-15.44c0-.3,0-.58,0-.72-2.72.03-4.21.04-5.8.06-1.81.03-3.73.05-7.26.05q-7.72-.05-15.45-.1t-15.44.03-15.44.12-15.45-.04-15.44-.08c-7.72,0-7.72.13-15.45.13q-7.72-.04-15.44-.09-7.72-.05-15.44-.1c-7.72,0-7.72.19-15.45.19q-7.72-.04-15.44-.09-7.72-.05-15.45-.1c-7.72,0-7.72.16-15.44.16q-7.71-.05-15.43-.1-7.72.04-15.44.07c-7.72,0-7.72-.16-15.45-.16s-7.72.16-15.44.16-7.72-.15-15.44-.15c-3.9,0-5.63,0-7.8,0,0,1.34,0,3.02,0,6.05q.01,7.72.03,15.44-.01,7.72-.03,15.45.05,7.71.1,15.44-.05,7.39-.1,14.8s0,.04,0,.05c1.55,0,2.71-.02,3.68-.02,1.18-.02,2.14-.03,3.1-.05,1.92-.03,3.85-.07,7.67-.07q7.72-.06,15.45-.11,7.72.03,15.45.07,7.72,0,15.45.02c7.73,0,7.73.15,15.45.15q7.72-.01,15.45-.03c7.73,0,7.73-.17,15.45-.17s7.73.14,15.45.14q7.73-.02,15.45-.04,7.72.05,15.44.1,7.72-.03,15.45-.07,7.72.05,15.45.1,7.72-.04,15.45-.09,7.73.02,15.46.03,7.72-.01,15.45-.02,7.72-.05,15.46-.1c7.74,0,7.74.14,15.47.14q7.74.02,15.47.03c5.97,0,7.06.28,7.06.79s-1.1.85-7.06.85q-7.72-.02-15.44-.04-7.72,0-15.45-.01c-7.72,0-7.72.13-15.44.13s-7.72-.13-15.44-.13-7.72.22-15.44.22q-7.72-.02-15.45-.04-7.71-.05-15.44-.1-7.72-.01-15.44-.02-7.72-.01-15.45-.02-7.72-.03-15.44-.06-7.72.02-15.45.04-7.72.01-15.44.03-7.71.06-15.44.12-7.72.03-15.45.05-7.72-.02-15.44-.04-7.72-.02-15.45-.03-7.72-.03-15.44-.06-8.17.02-16.33.05v-.04q.03-8.17.05-16.34,0-7.72-.01-15.45-.04-7.72-.07-15.44c0-7.72.13-7.72.13-15.44-.01-1.7-.02-3.03-.03-4.15C.08,2.46.06,1.27.04.13c1.39-.03,2.7-.06,4.33-.09C5.66.02,7.21,0,9.37,0q7.72,0,15.44,0,7.72,0,15.45,0,7.72,0,15.44,0c7.72,0,7.72.2,15.45.2q7.72-.02,15.45-.04,7.72-.04,15.45-.09,7.72-.02,15.45-.05c7.73,0,7.73.25,15.45.25q7.72-.05,15.45-.1,7.72-.03,15.45-.07,7.73.02,15.45.03,7.72-.05,15.45-.1c7.73,0,7.73.19,15.45.19q7.72-.05,15.44-.1,7.72-.05,15.45-.11,7.73,0,15.45-.01,7.73,0,15.45,0c3.59,0,5.51.04,7.32.08.91.02,1.79.04,2.83.06,1.29.01,2.77.02,4.7.04,0,.64,0,1.46,0,2.34q-.02,7.72-.04,15.45.03,7.73.07,15.46.03,7.73.05,15.47-.05,7.73-.1,15.47c0,5.97-.34,5.49-.85,5.49s-.86.48-.86-5.49Z"/>
    </g>
  </g>
</svg>