<?xml version="1.0" encoding="UTF-8"?>
<svg id="_レイヤー_2" data-name="レイヤー 2" xmlns="http://www.w3.org/2000/svg" viewBox="0 0 147.44 28.49">
  <defs>
    <style>
      .cls-1 {
        fill: #5f3339;
        stroke-width: 0px;
      }
    </style>
  </defs>
  <g id="_ガイド" data-name="ガイド">
    <path class="cls-1" d="M145.97,24.97q0-3.77-.01-7.54c0-3.77-.13-3.77-.13-7.54s.18-3.77.18-7.54c0-.42,0-.75,0-.83-2.15,0-2.68,0-5.36,0-3.77,0-3.77.09-7.54.09-3.76-.04-3.78-.04-7.54-.08q-3.77.01-7.54.03c-3.77,0-3.77.1-7.54.1q-3.77-.02-7.54-.03c-3.76-.03-3.78-.03-7.54-.06-3.77,0-3.77.11-7.54.11-3.76-.03-3.78-.04-7.54-.07-3.76-.04-3.78-.04-7.54-.08-3.77,0-3.77.15-7.54.15-3.76-.04-3.78-.04-7.54-.07-3.76-.04-3.78-.04-7.54-.08-3.77,0-3.77.13-7.53.13-3.75-.04-3.78-.04-7.53-.08-3.76.03-3.77.03-7.54.06-3.77,0-3.77-.13-7.54-.13s-3.77.13-7.53.13-3.77-.12-7.54-.12c-1.77,0-2.56,0-3.54,0,0,.6,0,1.34,0,2.69q.01,3.77.02,7.54t-.02,7.54c.04,3.75.04,3.78.08,7.52,0,.05,0,.1,0,.12,1.13.02,1.76.03,2.44.04.88.02,1.81.04,3.52.04,3.77,0,3.77-.11,7.54-.11s3.77-.09,7.54-.09q3.77.03,7.54.05,3.77,0,7.54.01c3.77,0,3.77.12,7.54.12q3.77-.01,7.54-.02c3.77,0,3.77-.14,7.54-.14s3.77.11,7.54.11q3.77-.02,7.54-.03c3.76.04,3.78.04,7.54.08q3.77-.03,7.54-.05c3.76.04,3.78.04,7.54.08,3.76-.04,3.78-.04,7.54-.07q3.77.01,7.54.02,3.77,0,7.54-.02c3.76-.04,3.78-.04,7.55-.08,3.78,0,3.78.12,7.55.12q3.77.01,7.55.02c2.91,0,3.45.23,3.45.64s-.54.7-3.45.7q-3.77-.02-7.54-.04-3.77,0-7.54,0c-3.77,0-3.77.11-7.54.11s-3.77-.1-7.54-.1-3.77.18-7.54.18q-3.77-.01-7.54-.03c-3.75-.04-3.78-.04-7.54-.08q-3.77-.01-7.54-.02-3.77,0-7.54-.02-3.77-.02-7.54-.05-3.77.01-7.54.03-3.77.01-7.54.02c-3.77,0-3.77.1-7.54.1q-3.77.02-7.54.04-3.77-.02-7.54-.03-3.77-.01-7.54-.02-3.76-.03-7.53-.05-3.76.02-7.53.04c-3.74-.02-4.12-.02-7.49-.04,0-.07,0-.69,0-1.39q0-3.81,0-7.62c-.03-3.76-.03-3.77-.06-7.53,0-3.77.11-3.77.11-7.54,0-.83-.02-1.47-.02-2.03C.07,1.44.05.76.03.11c.78-.02,1.52-.05,2.41-.07C3.08.02,3.83,0,4.89,0h7.54q3.77,0,7.54,0,3.77,0,7.54,0c3.77,0,3.77.16,7.54.16q3.77-.02,7.54-.04c3.76-.04,3.78-.04,7.54-.07q3.77-.02,7.54-.04c3.77,0,3.77.2,7.54.2,3.76-.04,3.78-.04,7.54-.08q3.77-.03,7.54-.06,3.77.01,7.54.03c3.76-.04,3.78-.04,7.54-.08,3.77,0,3.77.16,7.54.16,3.76-.04,3.78-.04,7.54-.08,3.76-.04,3.79-.04,7.54-.09q3.77,0,7.54,0,3.77,0,7.54,0c3.77,0,3.77.15,7.54.15,3.37.02,4.03.02,6.75.03,0,.21,0,1.07,0,2.14q.03,3.77.05,7.55.02,3.77.04,7.55c-.04,3.76-.04,3.79-.08,7.55,0,2.91-.28,2.68-.7,2.68s-.7.23-.7-2.68Z"/>
  </g>
</svg>