<?xml version="1.0" encoding="UTF-8"?>
<svg id="_レイヤー_2" data-name="レイヤー 2" xmlns="http://www.w3.org/2000/svg" viewBox="0 0 17.81 17.81">
  <defs>
    <style>
      .cls-1 {
        fill: #000;
      }
    </style>
  </defs>
  <g id="_ワイヤー" data-name="ワイヤー">
    <path class="cls-1" d="M5.22.06c-.95.04-1.59.2-2.16.42-.59.23-1.08.53-1.58,1.03-.49.5-.8.99-1.02,1.58-.22.57-.37,1.21-.41,2.16C0,6.2,0,6.5,0,8.92c0,2.42.02,2.72.06,3.67.05.95.2,1.59.42,2.16.23.59.53,1.08,1.03,1.58.5.49.99.8,1.58,1.02.57.22,1.21.37,2.16.41.95.04,1.25.05,3.67.05,2.42,0,2.72-.02,3.67-.06.95-.05,1.59-.2,2.16-.42.59-.23,1.08-.53,1.58-1.03.49-.5.8-.99,1.02-1.58.22-.57.37-1.21.41-2.16.04-.95.05-1.25.05-3.67,0-2.42-.02-2.72-.06-3.67-.05-.95-.2-1.59-.42-2.16-.23-.59-.53-1.08-1.03-1.58-.5-.49-.99-.8-1.58-1.02-.57-.22-1.21-.37-2.16-.41C11.61,0,11.31,0,8.89,0c-2.42,0-2.72.02-3.67.06M5.32,16.16c-.87-.04-1.34-.18-1.65-.3-.42-.16-.71-.35-1.03-.66-.31-.31-.51-.61-.67-1.02-.12-.31-.27-.79-.31-1.65-.04-.94-.05-1.22-.06-3.6,0-2.38,0-2.66.05-3.6.04-.87.18-1.34.3-1.65.16-.42.35-.71.66-1.03.31-.31.61-.51,1.02-.67.31-.12.78-.27,1.65-.31.94-.04,1.22-.05,3.6-.06,2.38,0,2.66,0,3.6.05.87.04,1.34.18,1.65.3.42.16.71.35,1.03.66.31.31.51.61.67,1.02.12.31.27.78.31,1.65.04.94.05,1.22.06,3.6,0,2.38,0,2.66-.05,3.6-.04.87-.18,1.34-.3,1.65-.16.42-.35.71-.66,1.03-.31.31-.61.51-1.02.67-.31.12-.78.27-1.65.31-.94.04-1.22.05-3.6.06-2.38,0-2.66,0-3.6-.05M12.58,4.14c0,.59.48,1.07,1.07,1.07.59,0,1.07-.48,1.07-1.07,0-.59-.48-1.07-1.07-1.07s-1.07.48-1.07,1.07M4.33,8.91c0,2.53,2.06,4.57,4.58,4.56,2.53,0,4.57-2.06,4.56-4.58,0-2.52-2.06-4.57-4.58-4.56-2.52,0-4.57,2.06-4.56,4.58M5.94,8.91c0-1.64,1.32-2.97,2.96-2.97,1.64,0,2.97,1.32,2.97,2.96,0,1.64-1.32,2.97-2.96,2.97-1.64,0-2.97-1.32-2.97-2.96"/>
  </g>
</svg>