<?xml version="1.0" encoding="UTF-8"?>
<svg id="_レイヤー_2" data-name="レイヤー 2" xmlns="http://www.w3.org/2000/svg" viewBox="0 0 55.55 49.3">
  <defs>
    <style>
      .cls-1 {
        fill: #faebd9;
      }

      .cls-1, .cls-2, .cls-3, .cls-4 {
        stroke-width: 0px;
      }

      .cls-2 {
        fill: #ccb374;
      }

      .cls-3 {
        fill: #c9c8bd;
      }

      .cls-4 {
        fill: #d4dad4;
      }
    </style>
  </defs>
  <g id="_ワイヤー" data-name="ワイヤー">
    <g>
      <g>
        <path class="cls-3" d="M25.43,49.1s.15.03.17.17c-4.34.03-8.66.03-13.01,0-.01-.08.02-.2,0-.25q6.42.04,12.84.08Z"/>
        <path class="cls-3" d="M8.84,49.27c-.83,0-1.67,0-2.5,0,0-.05.01-.12,0-.17q1.21-.04,2.42-.08s.12-.04.08.25Z"/>
        <path class="cls-3" d="M30.18,48.94s.19.14.17.33c-.36,0-.72,0-1.08,0-.1-.13-.08-.24-.08-.25l1-.08Z"/>
        <path class="cls-3" d="M2.83,49.27c-.68-.04-1.26-.01-.17-.33,0,.02.15.23.17.33Z"/>
      </g>
      <g>
        <g>
          <path class="cls-3" d="M17.34,4.25c.32-.05,6.02-.05,6.34,0,1.63.24,1.74,2.79,1.83,3-2.56,0-5.11,0-7.67,0-.47,0-.94,0-1.42,0-.38,0-.56.09-.92-.08.29-1.05.54-2.73,1.83-2.92Z"/>
          <path class="cls-3" d="M23.68,4.25c-.31-.05-6.02-.05-6.34,0-.3-1.44,1.99-3.89,3.29-3.75.87.09,3.23,2.05,3.04,3.75Z"/>
        </g>
        <g>
          <path class="cls-3" d="M32.26,46.69c.24.05.84.66,1,.88.67.89.44,1.66,1.42,1.67-1.44.09-2.89.04-4.34.04.02-.2-.16-.32-.17-.33-.12-.57.1-1.76.67-2.08.3-.17,1.11-.24,1.42-.17Z"/>
          <path class="cls-3" d="M27.43,46.69c.72.17,1.43,1.73,1.75,2.33,0,.01-.01.12.08.25-1.22,0-2.45,0-3.67,0-.02-.14-.16-.16-.17-.17-.26-.59-.02-1.9.58-2.25.31-.18,1.08-.25,1.42-.17Z"/>
        </g>
        <g>
          <path class="cls-3" d="M10.84,46.77c.65.13,1.52,1.68,1.75,2.25.02.05-.01.17,0,.25-1.25,0-2.5,0-3.75,0,.04-.29-.08-.24-.08-.25-.21-1.49.49-1.9.5-2.25.45.05,1.24-.07,1.58,0Z"/>
          <path class="cls-3" d="M4.59,46.6c.71.2,1.56,1.83,1.75,2.5.01.04,0,.11,0,.17-1.13,0-2.4.06-3.5,0-.02-.1-.16-.32-.17-.33-.36-1.13.54-1.91.58-2.17.42-.17,1.27-.19,1.33-.17Z"/>
        </g>
        <g>
          <path class="cls-3" d="M3.08,29.76c-.13.46.29,1.99.25,2.29-.01.1-.83,1.62-.83,1.75-.01.28.33.74.33.79,0,.03,0,.06,0,.08l-.71-.42c-.47,1.11-.73,1.03-.79,1.13-.74,1.16-.64,2.17-.67-.5l-.67.33c.62-1.73.08-1.03.08-1.42,0-.03.25-.53.25-.58.01-.15-.18-.48,0-1.08.16-.53.77-.87,1-1.17.09-.11.35-1.28,1.33-1.38.02,0,.39.1.42.17Z"/>
          <path class="cls-3" d="M5,22.34c-.12.84-.34,1.67-.5,2.5-.29,1.5-.52,3.05-1,4.5-.04.13-.41.39-.42.42-.03-.06-.39-.17-.42-.17,1.07-3.05,1.3-6.28,2.42-9.34.22.69.02,1.4-.08,2.08Z"/>
        </g>
        <g>
          <path class="cls-4" d="M25.51,7.25c.27.63,6.41,5.68,9.5,9.88.66.89,1.3,2.21,1.42,2.38-.24,1.49-.21,3.01-.5,4.5-.42,2.16-1.04,2.92-1.75,4.5-.28.62-.74,1.2-1,1.83-.31-.32-.54-1.23-.75-1.83-.25-.72-.47-1.46-.75-2.17-.45-1.14-.9-2.3-1.5-3.38-1.79-3.23-9.31-12.76-12.34-15.71,2.56,0,5.11,0,7.67,0Z"/>
          <path class="cls-3" d="M34.1,30.6c-.4,1.57-.96,4.41-1.25,6.04-.15.84.03,1.37,0,1.58-.05.33-1.14,1.65-1.17,1.83-.09.55.53,5.41.58,6.63-.31-.07-1.12,0-1.42.17-.19-1.17.23-6.46.17-6.79-.02-.09-.95-1.25-1-1.5-.13-.68.3-1.61.33-2.29.8-1.21,1.55-2.45,2.33-3.67.43-.68.87-1.41,1.42-2Z"/>
          <path class="cls-3" d="M16.42,7.25c-.21.73-1.42,1.64-2.08,2.38-1.38,1.53-3.9,4.38-5.17,5.92-.64.78-1.92,2.84-2.08,2.92-.3.14-.91-.08-1.25.13,1.39-2.91,3.54-5.23,5.79-7.5,1.16-1.17,3.88-3.37,3.96-3.63.05-.17-.1-.24-.08-.29.36.17.53.08.92.08Z"/>
          <path class="cls-3" d="M35.01,28.01c-.08.23-.39.6-.58,1.17-.16.45-.22.96-.33,1.42-.54.59-.98,1.33-1.42,2-.28.1.31-1.63.42-1.92.03-.08.05-.25.08-.33.26-.64.72-1.21,1-1.83.07,1.36.32-.3.83-.5Z"/>
          <path class="cls-3" d="M25.01,29.68c-3.73,1.4-8.12.75-11.46-1.33-.11.08,0,.73-.04.92.01-1.43-.7-1.21-1.58-2.21-1.28-1.46-1.38-3.25-2.33-4.71-.06-.22-.68-2.1-.54-2.17,1.22,1.84,2.49,4.04,4.34,5.34,4.2,2.94,10.47,2.33,13.34-2.17-.02,1.2-1.7,6.01-1.71,6.34Z"/>
          <g>
            <path class="cls-3" d="M10.34,35.6c-.33.68-1.43,2.77-1.42,3.29.01.47,1.53,6.62,1.92,7.88-.34-.07-1.13.05-1.58,0,.02-.47-2.72-8.42-2.75-8.88-.06-.73,1.27-3.88,1.42-4.96.05-.05.12-.11.17-.17.95-.98,2.54-2.03,3.83-2.46-.96,2.33-1.97,4.75-2.63,7.13.09.05.8-1.76,1.04-1.83Z"/>
            <path class="cls-3" d="M13.51,29.26c-.15.73-2.59,5.12-3.17,6.34-.24.08-.95,1.89-1.04,1.83.66-2.38,1.66-4.8,2.63-7.13-1.3.43-2.89,1.48-3.83,2.46.15-.8,2.77-4,2.83-4.38.12-.71-1.05-4.99-1.33-6.04.96,1.46,1.05,3.26,2.33,4.71.88,1,1.6.78,1.58,2.21Z"/>
          </g>
          <path class="cls-3" d="M31.1,28.68c-.56,2.98-.28,2.53,2,2-.11.28-.69,2.02-.42,1.92-.78,1.22-1.53,2.46-2.33,3.67.1-2.27-.08-4.56,0-6.84.34-.9.8-1.71,1.17-2.58.18.3-.28,1.08-.42,1.83Z"/>
          <path class="cls-3" d="M32.43,28.51c-.47-.04-.89.36-1.33.17.14-.75.59-1.53.42-1.83.08-.19.16-.22.17-.5.28.71.5,1.45.75,2.17Z"/>
          <g>
            <path class="cls-3" d="M17.84,7.25c3.03,2.95,10.54,12.48,12.34,15.71.6,1.07,1.05,2.24,1.5,3.38,0,.28-.09.31-.17.5-.37.88-.83,1.69-1.17,2.58-.95,2.5-1.46,5.24-1.92,7.88-.06.37.12.64.08.83-.11.62-1.19,1.58-1.25,1.83-.18.72.15,5.38.17,6.71-.34-.08-1.11-.01-1.42.17-.11-1.29.44-6.38.33-6.88-.02-.09-.89-1.27-.92-1.5-.03-.28.25-.87.25-.92-.03-2.61-.46-5.56-.5-7.75,0-.06-.17-.11-.17-.13,0-.33,1.69-5.13,1.71-6.34-2.86,4.5-9.14,5.11-13.34,2.17-1.84-1.29-3.11-3.49-4.34-5.34-.14.07.48,1.95.54,2.17.28,1.05,1.46,5.34,1.33,6.04-.07.38-2.69,3.57-2.83,4.38-.05.05-.12.11-.17.17-.24.26-3.94,5.37-4,5.71-.11.59.59,6.62.67,7.96-.06-.02-.92,0-1.33.17.06-.36-.94-6.33-1.08-7.29-.17-1.09-.58-2.13-.58-2.25,0-.35,1.26-1.99,1.25-2.54,0-.03,0-.06,0-.08.4-.26,2.05-3.74,2.08-3.96.04-.3-.16-4.73-.08-6.09.04-.73.33-1.47.17-2.21.1-.68.3-1.4.08-2.08.23-.64.47-1.07.75-1.67.34-.2.95.02,1.25-.13.16-.08,1.44-2.14,2.08-2.92,1.27-1.54,3.79-4.39,5.17-5.92.66-.73,1.87-1.65,2.08-2.38.47,0,.94,0,1.42,0Z"/>
            <g>
              <path class="cls-4" d="M20.47,20.26l.29.21c.11,1.24-1.5.22-.29-.21Z"/>
              <path class="cls-4" d="M17.13,20.43c.91.53-.31,1.27-.38.29l.38-.29Z"/>
              <path class="cls-3" d="M27.3,19.93c.9.37-.03,1.47-.29.29l.29-.29Z"/>
              <path class="cls-3" d="M19.72,12.42c1,.12.11,1.25-.13.13l.13-.13Z"/>
              <path class="cls-3" d="M13.21,12.34c.85-.21.77.84-.21.13l.21-.13Z"/>
              <path class="cls-4" d="M18.38,12.67l.38.21c.09.46-.87.42-.38-.21Z"/>
              <path class="cls-4" d="M18.55,11.42l.38.13c.05.64-.73.43-.38-.13Z"/>
              <path class="cls-4" d="M24.8,19.09c.54.73.17.95-.04.04l.04-.04Z"/>
              <path class="cls-1" d="M24.89,17.92c.26.23.1.49-.13.21l.13-.21Z"/>
              <path class="cls-1" d="M18.05,19.76c.37.06.1.42-.13.13l.13-.13Z"/>
              <path class="cls-1" d="M15.3,18.01c.26.01.12.45-.13.13.05-.04.11-.13.13-.13Z"/>
              <path class="cls-1" d="M16.63,18.84c.23.18.12.34-.13.21l.13-.21Z"/>
              <path class="cls-1" d="M20.05,18.92c.23.18.12.34-.13.21l.13-.21Z"/>
              <path class="cls-1" d="M24.22,19.68l.21.13c-.23.31-.34-.06-.21-.13Z"/>
              <path class="cls-4" d="M10.63,21.01c.2-.06.33.69-.04.04l.04-.04Z"/>
              <path class="cls-2" d="M18.55,19.17l.29.04c-.15.26-.4.01-.29-.04Z"/>
              <path class="cls-1" d="M13.38,20.26c.06-.04.27,0,.21.13-.07.13-.39,0-.21-.13Z"/>
              <path class="cls-1" d="M24.89,20.84s.18.12.04.21c-.16.1-.19-.21-.04-.21Z"/>
              <path class="cls-4" d="M20.8,13.76c.21-.11.24.15.08.17,0,0-.17-.12-.08-.17Z"/>
              <path class="cls-2" d="M22.22,19.01c.05,0,.11,0,.13.04.07.24-.5.01-.13-.04Z"/>
            </g>
          </g>
          <path class="cls-3" d="M32.43,28.51c.21.6.44,1.51.75,1.83-.03.08-.05.25-.08.33-2.28.52-2.56.98-2-2,.45.19.86-.2,1.33-.17Z"/>
          <path class="cls-3" d="M35.01,28.01c-.52.2-.77,1.86-.83.5.71-1.58,1.33-2.34,1.75-4.5.19,1.39-.47,2.72-.92,4Z"/>
        </g>
        <g>
          <g>
            <path class="cls-3" d="M46.35,11.09c-.73,2.19,1.72,6.76.17,11.13-1.01,2.84-3.89,5.02-6.88,5.29-2.21.2-3.49-.38-3.67-.33-.12.03-1.11,1.85-1.54,2,.2-.57.5-.93.58-1.17.45-1.28,1.11-2.61.92-4,.29-1.49.26-3.01.5-4.5.95,1.36,3.67,1.36,4.63.67,1.89-1.38.32-8.67-.04-10.84,1.6,1.53,3.06,2.32,5.34,1.75Z"/>
            <path class="cls-4" d="M41.06,23.51s.18.12.04.21c-.16.1-.19-.21-.04-.21Z"/>
          </g>
          <g>
            <path class="cls-3" d="M53.69,5.5l.08-.33c.17.22.34.44.5.67-.22.14.47.92.67,1.46.14.39.04,1.11.42,1.29,0,.03,0,.06,0,.08-2.39,3.05-7.1-2.96-3.5,1-1.28.64-1.84-.74-1.96-.75-.99.92-3.11.86-3.54,2.17-2.28.57-3.74-.22-5.34-1.75-.1-.59-.36-1.2-.42-1.79-.13-1.46.35-3.82.25-4.71.36.15.41,0,.58,0,.25-.01.09.64.58-1.17.09.15.19.23.21.42.84-1.13.09,1.3-.25,1.33-.08,0-.82-.5-1.04.71-.24,1.26,1.37,3.67,2.38,4.38,2.74,1.93,6.6-.12,6.71-.46.09-.27-.15-1.52.13-1.63.76.13.12,1.25.42,1.58.82.95,6.4,2.88,3.13-2.5Z"/>
            <path class="cls-3" d="M55.36,8.67c0,.17.27.46.17.96-.28,1.44-2.9.62-3.67.04-3.6-3.96,1.11,2.05,3.5-1Z"/>
            <path class="cls-3" d="M43.69,1.5c-.35-.06-1.12.07-1.33,0L43.48,0l.21,1.5Z"/>
            <path class="cls-3" d="M55.36,8.59c-.38-.18-.27-.9-.42-1.29-.2-.54-.89-1.31-.67-1.46.65.9,1.12,1.48,1.25,2.63,0,.05-.17.11-.17.13Z"/>
            <g>
              <path class="cls-3" d="M42.35,1.5c.21.07.99-.06,1.33,0,2.57.45,3.56,1.42,4.13,1.58.91.27,5.72.48,5.96,2-.39.03-.82.15-1.21.08-.5-.09-2.4-1.32-.25.42.47.12.95.15,1.38-.08,3.28,5.38-2.31,3.45-3.13,2.5-.29-.34.35-1.45-.42-1.58-.28.1-.04,1.36-.13,1.63-.11.34-3.97,2.39-6.71.46-1.01-.71-2.61-3.12-2.38-4.38.23-1.21.96-.7,1.04-.71.34-.04,1.09-2.46.25-1.33-.02-.19-.11-.27-.21-.42-.23-.36-.36-.8-.71-1.08-.86.79-.44,1.43.13,2.25-.18,0-.23.15-.58,0-.08-.74-1.29-1.37.29-2.83.21-.01,1.03,1.44,1.21,1.5Z"/>
              <path class="cls-3" d="M53.77,5.09v.08l-.08.33c-.43.23-.91.2-1.38.08-2.15-1.74-.25-.5.25-.42.39.07.82-.05,1.21-.08Z"/>
              <path class="cls-3" d="M44.23,4.42c.59.05,1.37-.07,1.92,0,1.67.2.64.26.5.33-.46.23-.01,1.16-1.42.83-.79-.18.3-.67-1-.92v-.25Z"/>
            </g>
          </g>
        </g>
        <path class="cls-3" d="M42.02,1.67c-.49,1.81-.33,1.15-.58,1.17-.57-.82-.98-1.46-.13-2.25.35.28.48.73.71,1.08Z"/>
      </g>
    </g>
  </g>
</svg>