<?xml version="1.0" encoding="UTF-8"?>
<svg id="_レイヤー_2" data-name="レイヤー 2" xmlns="http://www.w3.org/2000/svg" viewBox="0 0 51.45 4.29">
  <defs>
    <style>
      .cls-1 {
        fill: #81b4ad;
        stroke-width: 0px;
      }
    </style>
  </defs>
  <g id="_ワイヤー" data-name="ワイヤー">
    <path class="cls-1" d="M51.05,3.92c-.56,0-.56.03-1.12.03s-.56.32-1.12.32-.56-.45-1.12-.45-.56.02-1.12.02-.56.23-1.12.23-.56-.2-1.12-.2-.56.07-1.12.07-.56.25-1.12.25-.56-.08-1.12-.08-.56-.16-1.12-.16-.56.27-1.12.27-.56-.18-1.12-.18-.56-.2-1.12-.2-.56.39-1.12.39-.56-.18-1.12-.18-.56-.21-1.12-.21-.56.33-1.12.33-.56-.21-1.12-.21-.56.15-1.12.15-.56-.32-1.12-.32-.56.33-1.12.33-.56-.3-1.12-.3-.56-.03-1.12-.03-.56.06-1.12.06-.56-.05-1.12-.05-.56.21-1.12.21-.56-.2-1.12-.2-.56.28-1.12.28-.56.23-1.12.23-.56-.13-1.12-.13-.56-.04-1.12-.04-.56-.3-1.12-.3-.56.05-1.12.05-.56.35-1.12.35-.56-.28-1.12-.28-.56.09-1.12.09-.56-.2-1.12-.2-.56.14-1.12.14-.56-.21-1.12-.21-.56.18-1.12.18-.56-.06-1.12-.06-.56.04-1.12.04-.56.2-1.12.2-.56-.29-1.12-.29-.56-.06-1.12-.06c-.43,0-.51-.57-.51-1.61S.08.42.51.42c.56,0,.56.09,1.12.09s.56.02,1.12.02.56-.27,1.12-.27.56.26,1.12.26.56-.45,1.12-.45.56.07,1.12.07.56.21,1.12.21.56.05,1.12.05.56.04,1.12.04.56.12,1.12.12.56-.07,1.12-.07.56-.05,1.12-.05.56-.25,1.12-.25.56-.11,1.12-.11.56.09,1.12.09.56.06,1.12.06.56.13,1.12.13.56-.1,1.12-.1.56.11,1.12.11.56-.02,1.12-.02.56-.15,1.12-.15.56.27,1.12.27S25.78,0,26.34,0s.56.01,1.12.01.56,0,1.12,0,.56-.01,1.12-.01.56.4,1.12.4.56-.09,1.12-.09.56-.18,1.12-.18.56-.1,1.12-.1.56.51,1.12.51.56-.2,1.12-.2.56-.14,1.12-.14.56.06,1.12.06.56-.2,1.12-.2.56.39,1.12.39.56-.21,1.12-.21.56-.22,1.12-.22.56-.02,1.12-.02.56,0,1.12,0,.56.38,1.12.38.56.08,1.12.08.56-.14,1.12-.14.56-.11,1.12-.11.56.2,1.12.2c.43,0,.4.7.4,1.74s.03,1.76-.4,1.76Z"/>
  </g>
</svg>