<?xml version="1.0" encoding="UTF-8"?>
<svg id="_レイヤー_2" data-name="レイヤー 2" xmlns="http://www.w3.org/2000/svg" viewBox="0 0 306.19 34.34">
  <defs>
    <style>
      .cls-1 {
        fill: #81b4ad;
        stroke-width: 0px;
      }

      .cls-2 {
        opacity: .4;
      }
    </style>
  </defs>
  <g id="_ワイヤー" data-name="ワイヤー">
    <g class="cls-2">
      <path class="cls-1" d="M303.81,31.37c-3.34,0-3.34.21-6.68.21s-3.34,2.57-6.68,2.57-3.34-3.64-6.68-3.64-3.34.19-6.68.19-3.34,1.81-6.68,1.81-3.34-1.56-6.68-1.56-3.34.55-6.68.55-3.34,2.02-6.68,2.02-3.34-.66-6.68-.66-3.34-1.29-6.68-1.29-3.34,2.19-6.68,2.19-3.34-1.4-6.68-1.4-3.34-1.6-6.68-1.6-3.34,3.08-6.68,3.08-3.34-1.46-6.68-1.46-3.34-1.67-6.68-1.67-3.34,2.61-6.68,2.61-3.34-1.7-6.68-1.7-3.34,1.19-6.68,1.19-3.34-2.6-6.68-2.6-3.34,2.61-6.68,2.61-3.34-2.43-6.68-2.43-3.34-.23-6.68-.23-3.34.45-6.68.45-3.34-.42-6.68-.42-3.34,1.7-6.68,1.7-3.34-1.64-6.68-1.64-3.34,2.25-6.68,2.25-3.34,1.8-6.68,1.8-3.34-1.07-6.68-1.07-3.34-.29-6.68-.29-3.34-2.41-6.69-2.41-3.34.43-6.68.43-3.34,2.81-6.68,2.81-3.34-2.22-6.69-2.22-3.34.69-6.69.69-3.34-1.58-6.68-1.58-3.34,1.09-6.69,1.09-3.34-1.66-6.69-1.66-3.34,1.44-6.69,1.44-3.34-.5-6.69-.5-3.34.33-6.68.33-3.34,1.59-6.69,1.59-3.35-2.33-6.69-2.33-3.35-.49-6.69-.49c-2.58,0-3.06-4.57-3.06-12.88S.48,3.34,3.06,3.34c3.34,0,3.34.71,6.68.71s3.34.2,6.68.2,3.34-2.18,6.68-2.18,3.34,2.1,6.68,2.1,3.34-3.57,6.68-3.57,3.34.58,6.68.58,3.34,1.67,6.68,1.67,3.34.41,6.68.41,3.34.33,6.68.33,3.34.92,6.68.92,3.34-.58,6.68-.58,3.34-.43,6.68-.43,3.34-2.03,6.68-2.03,3.34-.9,6.68-.9,3.34.7,6.68.7,3.34.49,6.68.49,3.34,1.04,6.68,1.04,3.34-.76,6.68-.76,3.34.89,6.68.89,3.34-.19,6.68-.19,3.34-1.18,6.68-1.18,3.34,2.18,6.68,2.18S153.39.05,156.73.05s3.34.09,6.68.09,3.34.04,6.68.04,3.34-.08,6.68-.08,3.34,3.2,6.68,3.2,3.34-.73,6.68-.73,3.34-1.45,6.68-1.45,3.34-.79,6.68-.79,3.34,4.06,6.68,4.06,3.34-1.63,6.69-1.63,3.34-1.11,6.68-1.11,3.34.5,6.68.5,3.34-1.63,6.69-1.63,3.34,3.14,6.69,3.14,3.34-1.65,6.68-1.65,3.34-1.78,6.69-1.78,3.34-.2,6.69-.2,3.34-.02,6.69-.02,3.34,3.05,6.69,3.05,3.34.68,6.68.68,3.34-1.09,6.69-1.09,3.35-.85,6.69-.85,3.35,1.62,6.69,1.62c2.58,0,2.37,5.59,2.37,13.9s.21,14.07-2.37,14.07Z"/>
    </g>
  </g>
</svg>